<?xml version="1.0" encoding="UTF-8"?>
<svg version="1.1" xmlns="http://www.w3.org/2000/svg" width="740" height="740">
<path d="M0 0 C0.12807867 14.78027892 -0.02269461 29.53868243 -0.4375 44.3125 C-0.4669722 45.41581161 -0.4669722 45.41581161 -0.49703979 46.54141235 C-0.74616264 55.71771478 -1.19361132 64.852683 -2 74 C-7.47614377 76.10754529 -12.96369454 77.98371854 -18.58203125 79.671875 C-19.39451828 79.91738098 -20.20700531 80.16288696 -21.04411316 80.41583252 C-22.76571373 80.93490023 -24.48775312 81.45251452 -26.21020508 81.96875 C-28.74150568 82.72868639 -31.27020569 83.4968324 -33.79882812 84.265625 C-57.20518005 91.33202988 -80.89150348 97.09442255 -104.8125 102.125 C-106.03439026 102.38391022 -107.25628052 102.64282043 -108.51519775 102.90957642 C-128.60561363 107.14554686 -148.65877736 110.46670294 -169.07568359 112.61791992 C-172.05629952 112.91284654 -172.05629952 112.91284654 -175 114 C-175 141.39 -175 168.78 -175 197 C-168.73 193.7 -162.46 190.4 -156 187 C-149.625 184.25 -149.625 184.25 -146.81640625 183.140625 C-143.67493958 181.86835278 -140.62741074 180.44660865 -137.5625 179 C-133.3417145 177.02729598 -129.11751155 175.24581998 -124.75 173.625 C-119.7574282 171.75872911 -115.02701297 169.59303278 -110.25 167.25 C-102.0011878 163.23347187 -93.47865757 160.15130767 -84.81738281 157.14550781 C-79.43244272 155.27166524 -74.2031485 153.27211803 -69.01953125 150.89746094 C-66.07234334 149.58775799 -63.0496071 148.5447728 -60 147.5 C-56.08656253 146.13426462 -52.29546187 144.73694287 -48.5625 142.9375 C-43.49922179 140.58601499 -38.14434778 139.35834183 -32.74609375 138.02734375 C-30.06253766 137.29139458 -27.68707198 136.51101988 -25.12890625 135.484375 C-20.67665284 133.7632405 -16.20572176 133.01375984 -11.5 132.3125 C-10.67757812 132.18294922 -9.85515625 132.05339844 -9.0078125 131.91992188 C-7.00637712 131.60574306 -5.00334158 131.30178543 -3 131 C-1.73983551 133.52032897 -1.86398918 135.26232682 -1.84851074 138.08441162 C-1.84016929 139.16384914 -1.83182783 140.24328667 -1.8232336 141.35543442 C-1.81904698 142.54750629 -1.81486036 143.73957817 -1.81054688 144.96777344 C-1.80223374 146.22231449 -1.79392061 147.47685555 -1.78535557 148.76941299 C-1.76719834 151.51511079 -1.75217282 154.26080213 -1.73951912 157.00653076 C-1.71921097 161.40656892 -1.6920301 165.80654867 -1.66392517 170.20654297 C-1.6245618 176.4726017 -1.58828852 182.73867135 -1.5541687 189.00476074 C-1.47063781 204.29340142 -1.37058767 219.58193916 -1.26957965 234.87047291 C-1.25388876 237.25265485 -1.23837414 239.6348379 -1.22288704 242.01702118 C-1.060263 266.92948774 -0.82831928 291.83994023 -0.4375 316.75 C-0.42633148 317.4673381 -0.41516296 318.18467621 -0.40365601 318.92375183 C-0.27836767 326.94933072 -0.14612741 334.97477125 0 343 C-1.2370166 342.98324219 -2.4740332 342.96648437 -3.74853516 342.94921875 C-6.6303405 342.95112025 -9.22678425 343.0591721 -12.0234375 343.8125 C-12.72138428 343.99699707 -13.41933105 344.18149414 -14.13842773 344.37158203 C-14.87649658 344.57895996 -15.61456543 344.78633789 -16.375 345 C-17.17301025 345.21640137 -17.97102051 345.43280273 -18.79321289 345.65576172 C-27.13985772 347.9592112 -35.4081129 350.53557057 -43.66357422 353.14453125 C-49.75969291 355.06015681 -55.86080817 356.75383507 -62.06860352 358.26708984 C-74.63375596 361.40863958 -86.99264491 365.22598416 -98.76318359 370.64868164 C-103.01706072 372.60680668 -107.20240921 374.09167243 -111.7109375 375.328125 C-115.92820077 376.56595654 -119.94201391 378.32415448 -124 380 C-125.49990086 380.58358819 -126.99990361 381.16691459 -128.5 381.75 C-133.42526081 383.72010432 -138.27547001 385.85189931 -143.125 388 C-143.87716797 388.33225586 -144.62933594 388.66451172 -145.40429688 389.00683594 C-149.69533021 390.91918515 -153.90778657 392.94021701 -158.09594727 395.06762695 C-159.87302119 395.93782125 -161.69563026 396.71325624 -163.51953125 397.48046875 C-167.41375412 399.18064013 -171.01512552 401.18624644 -174.6875 403.3125 C-179.43704019 406.03152693 -184.18659152 408.63354117 -189.125 411 C-195.55000693 414.14712008 -201.4254837 418.00377767 -207.38183594 421.94335938 C-209.62128401 423.40569059 -211.9073295 424.78974842 -214.1875 426.1875 C-220.57096777 430.20707491 -226.54898817 434.80122287 -232.53979492 439.37768555 C-233.3310376 439.97363525 -234.12228027 440.56958496 -234.9375 441.18359375 C-235.64777344 441.72556396 -236.35804688 442.26753418 -237.08984375 442.82592773 C-239 444 -239 444 -242 444 C-242.18540946 433.78634597 -242.32753047 423.57309251 -242.41449738 413.35809803 C-242.4562395 408.61467339 -242.51284668 403.8724004 -242.60351562 399.12963867 C-242.69048147 394.55189914 -242.73828148 389.97526661 -242.75901794 385.39676476 C-242.77379334 383.65070856 -242.80264862 381.90471262 -242.84584045 380.15912819 C-243.17072358 366.48442111 -243.17072358 366.48442111 -240.31958008 362.86930847 C-238.23227573 361.53030857 -236.36253812 360.72839232 -234 360 C-233.20851563 359.58194092 -232.41703125 359.16388184 -231.6015625 358.7331543 C-230.94929688 358.43320557 -230.29703125 358.13325684 -229.625 357.82421875 C-228.87541016 357.47528564 -228.12582031 357.12635254 -227.35351562 356.7668457 C-226.57685547 356.41066162 -225.80019531 356.05447754 -225 355.6875 C-223.32229546 354.9049763 -221.64522207 354.12109816 -219.96875 353.3359375 C-219.13601563 352.94631836 -218.30328125 352.55669922 -217.4453125 352.15527344 C-209.15555967 348.23882871 -200.96301221 344.12064008 -192.9375 339.6875 C-189.03456747 337.5333592 -185.13976931 335.67043323 -181 334 C-174.20394214 331.20508443 -167.46810004 328.32658573 -160.79296875 325.25390625 C-157.82252843 323.92032395 -154.82479927 322.673412 -151.8125 321.4375 C-148.48889494 320.06970869 -145.24674562 318.66570832 -142.0625 317 C-138.90196478 315.3698654 -135.68927027 314.08600252 -132.359375 312.83984375 C-127.00449019 310.7987123 -121.7025282 308.65793541 -116.41796875 306.44140625 C-115.29298729 305.96977554 -115.29298729 305.96977554 -114.14527893 305.48861694 C-111.05367367 304.1905855 -107.96328392 302.88969303 -104.8737793 301.58666992 C-96.6432884 298.11858528 -88.39960118 294.70216805 -80.05078125 291.52734375 C-79.38298141 291.27030167 -78.71518158 291.01325958 -78.02714539 290.74842834 C-75.1936741 289.68707947 -73.05430889 289 -70 289 C-69.67 271.51 -69.34 254.02 -69 236 C-69.66 236 -70.32 236 -71 236 C-71.33 233.36 -71.66 230.72 -72 228 C-76.63447345 229.73123463 -81.26708694 231.46730198 -85.89746094 233.20947266 C-87.6939842 233.88494204 -89.49142973 234.55795768 -91.2890625 235.23046875 C-97.8852178 237.72746294 -104.42127683 240.36488693 -110.9375 243.0625 C-112.14563354 243.55532471 -112.14563354 243.55532471 -113.37817383 244.05810547 C-116.78633038 245.48318566 -119.82441561 246.88270774 -122.90625 248.94140625 C-127.21947484 251.81144349 -131.83761062 253.77285256 -136.5625 255.875 C-147.26460349 260.70615007 -157.85227553 265.7414344 -168.41259766 270.87207031 C-173.83959936 273.50814528 -179.26744939 276.13882014 -184.734375 278.69140625 C-201.99909159 286.75368813 -218.73858246 295.64993277 -234.78515625 305.94140625 C-237.49754593 307.67825845 -240.23434815 309.3503593 -243 311 C-244.17758908 292.26819073 -245.29057327 273.59064877 -245.01367188 254.81396484 C-244.94050456 248.91615644 -245.02728966 243.08255426 -245.35316563 237.19505405 C-246.2987935 219.45389652 -246.1291111 201.6959504 -246.10139394 183.93613553 C-246.09505736 179.1769839 -246.09454858 174.41783134 -246.09336853 169.65867615 C-246.09028513 160.68503003 -246.08211292 151.71139639 -246.07201904 142.73775572 C-246.06076392 132.5052543 -246.05532399 122.27275222 -246.05032361 112.04024613 C-246.03992711 91.02682384 -246.02238685 70.01341271 -246 49 C-244.15607666 48.87939209 -244.15607666 48.87939209 -242.27490234 48.75634766 C-237.64872099 48.45232203 -233.02303705 48.14121313 -228.39746094 47.828125 C-226.40767805 47.6944013 -224.41777057 47.56251683 -222.42773438 47.43261719 C-211.20315802 46.69861572 -200.10419379 45.85704698 -189 44 C-187.96523026 43.82749222 -186.93046051 43.65498444 -185.86433411 43.47724915 C-183.95931971 43.15579739 -182.05452204 42.83305954 -180.14990234 42.50927734 C-176.62304569 41.93905389 -173.09021223 41.44308145 -169.55078125 40.95703125 C-151.7290135 38.50533701 -134.16267315 35.45954338 -116.61703491 31.48364258 C-112.09682972 30.46027183 -107.56924839 29.48422005 -103.03230286 28.53794861 C-76.09674654 22.88678629 -50.02004067 14.99440595 -23.83764648 6.60473633 C-23.15130158 6.38517179 -22.46495668 6.16560724 -21.75781345 5.93938923 C-18.50274915 4.8976986 -15.249744 3.85062229 -11.99952698 2.7938385 C-10.85564011 2.42536301 -9.71175323 2.05688751 -8.53320312 1.67724609 C-7.53260864 1.35211029 -6.53201416 1.02697449 -5.50109863 0.69198608 C-3 0 -3 0 0 0 Z " fill="#0C6DFC" transform="translate(647,155)"/>
<path d="M0 0 C1.4369218 0.3132036 2.87347788 0.62808536 4.30987835 0.94367123 C5.5099101 1.20642468 5.5099101 1.20642468 6.73418492 1.47448629 C9.47328282 2.10976916 12.11239051 2.92515947 14.7746582 3.82836914 C15.82031952 4.17986526 16.86598083 4.53136139 17.94332886 4.89350891 C19.60526779 5.45862434 19.60526779 5.45862434 21.30078125 6.03515625 C23.72880199 6.84947798 26.15711768 7.6629207 28.58569336 8.47558594 C29.21268505 8.68587842 29.83967674 8.8961709 30.48566818 9.11283588 C54.41792847 17.13723853 78.30088166 24.67929528 103 30 C103.71148193 30.1551709 104.42296387 30.3103418 105.15600586 30.47021484 C126.96455336 35.22395001 148.88513359 38.99184493 171 42 C172.08909668 42.14920898 173.17819336 42.29841797 174.30029297 42.45214844 C188.94019902 44.41089551 203.61709351 45.53465075 218.34375 46.5859375 C220.25750007 46.72402123 222.17123715 46.86228492 224.08496094 47.00073242 C228.72316052 47.33589356 233.36152814 47.66862931 238 48 C238.13261805 63.79881401 238.26306247 79.59764452 238.39115143 95.39649582 C238.45071782 102.73780896 238.51091689 110.07911576 238.57275391 117.42041016 C238.85760544 151.28061342 239.08992728 185.13822987 239 219 C238.34 219 237.68 219 237 219 C237 218.34 237 217.68 237 217 C236.43796875 216.75507813 235.8759375 216.51015625 235.296875 216.2578125 C232.58271315 214.77148577 230.56037151 212.93424417 228.25 210.875 C221.4638661 205.23198492 213.97670973 201.67118318 206 198 C205.02933594 197.53851563 204.05867187 197.07703125 203.05859375 196.6015625 C193.96539222 192.34632363 184.58277603 188.61201015 175.125 185.25 C172 184 172 184 171 182 C170.88467426 179.95882273 170.83304818 177.91393769 170.81054688 175.86962891 C170.78547058 173.93719833 170.78547058 173.93719833 170.7598877 171.96572876 C170.75320572 171.27515003 170.74652374 170.5845713 170.73963928 169.87306595 C170.71861422 167.71261047 170.69158956 165.55230452 170.66296387 163.39193726 C170.60324513 158.80301572 170.55112619 154.21402423 170.5 149.625 C170.44073601 144.31441875 170.37836414 139.00391068 170.30812073 133.69346237 C170.2815908 131.56638691 170.2607466 129.43930395 170.2401123 127.31216431 C170.21503601 125.37027725 170.21503601 125.37027725 170.18945312 123.38916016 C170.17692505 122.24935699 170.16439697 121.10955383 170.15148926 119.93521118 C170.02311443 117.44785834 169.72291662 115.37044882 169 113 C167.93193115 112.83508057 166.8638623 112.67016113 165.76342773 112.50024414 C145.72753744 109.38351567 125.81144039 106.00089345 106.0625 101.375 C105.28526581 101.19349396 104.50803162 101.01198792 103.70724487 100.82498169 C92.08116455 98.09433003 80.55167732 95.03991508 69 92 C69 156.02 69 220.04 69 286 C72.63 286.99 76.26 287.98 80 289 C93.25817683 293.0959361 106.23435358 297.75495704 118.67578125 303.90625 C123.82460176 306.44359653 129.1006523 308.67619871 134.375 310.9375 C164.5207051 323.95343084 164.5207051 323.95343084 174 331 C175.06018529 323.39113173 175.09193921 315.9846385 174.875 308.3125 C174.85953125 306.5171582 174.85953125 306.5171582 174.84375 304.68554688 C174.80810046 297.6249316 174.80810046 297.6249316 171.87109375 291.4296875 C168.80865125 288.83806949 165.70688164 286.70873514 162.1875 284.8125 C161.60935547 284.48314453 161.03121094 284.15378906 160.43554688 283.81445312 C156.09987782 281.40468347 151.67199532 279.66012595 147 278 C146.06881234 260.31981724 145.87687036 242.70035894 146 225 C150.4444657 223.98771026 154.10980844 224.19683447 158.5625 225 C159.29774902 225.13245117 160.03299805 225.26490234 160.79052734 225.40136719 C175.55625308 228.30315867 189.62844497 234.21422891 203 241 C203.6815918 241.34289062 204.36318359 241.68578125 205.06542969 242.0390625 C215.1160565 247.12613442 224.63995693 252.73200701 234 259 C235.093125 259.60457031 236.18625 260.20914062 237.3125 260.83203125 C240 263 240 263 240.98828125 266.0546875 C241.09527344 267.31539063 241.20226562 268.57609375 241.3125 269.875 C241.40785034 270.93509277 241.40785034 270.93509277 241.50512695 272.01660156 C242.13953551 279.90965379 242.39367628 287.83775553 242.6875 295.75 C242.71268707 296.41642517 242.73787415 297.08285034 242.76382446 297.76947021 C242.83310387 299.69501719 242.89133446 301.62095179 242.94921875 303.546875 C242.98362061 304.66932617 243.01802246 305.79177734 243.0534668 306.94824219 C243 310 243 310 242.50417423 312.35418987 C241.98101004 315.09965569 241.87696088 317.59176702 241.87974548 320.38471985 C241.87837082 321.45177658 241.87699615 322.51883331 241.87557983 323.6182251 C241.87917511 324.77844177 241.88277039 325.93865845 241.88647461 327.1340332 C241.88625557 328.97855324 241.88625557 328.97855324 241.8860321 330.8603363 C241.8866086 334.22359352 241.8916173 337.58678904 241.89860606 340.95003533 C241.90486545 344.46808709 241.90544545 347.9861397 241.90663147 351.50419617 C241.90973716 358.1622394 241.91794028 364.82026618 241.92798096 371.47830218 C241.93916575 379.05989191 241.94465851 386.64148244 241.94967639 394.22307837 C241.96012353 409.8153951 241.97770822 425.40769543 242 441 C237.51572878 439.23420781 233.55807686 437.10463917 229.4375 434.625 C228.4484668 434.04492188 228.4484668 434.04492188 227.43945312 433.453125 C218.74924458 428.24773375 218.74924458 428.24773375 217 423 C215.05894404 421.51896412 215.05894404 421.51896412 212.625 420.1875 C211.71363281 419.6615625 210.80226563 419.135625 209.86328125 418.59375 C206.27245574 416.59503676 202.6580625 414.64243644 199.0390625 412.6953125 C195.53162954 410.73872393 192.11431077 408.65578482 188.6875 406.5625 C182.23499709 402.64269424 175.6315249 399.18052889 168.83300781 395.89013672 C165.52321014 394.28284818 162.23032852 392.64170349 158.9375 391 C157.92768066 390.49847412 157.92768066 390.49847412 156.89746094 389.98681641 C152.64313236 387.86171432 148.47065074 385.6220271 144.3125 383.3125 C139.13323511 380.49034213 133.91173358 378.33654273 128.37890625 376.3125 C124.67864043 374.87517131 121.13682287 373.2203581 117.5625 371.5 C111.87926124 368.78886864 106.17051173 366.53746473 100.20703125 364.49609375 C95.8132276 362.96748215 91.49861203 361.24765827 87.1706543 359.54321289 C60.23088146 348.9720612 32.61645306 340.05636167 3.97265625 335.54296875 C1 335 1 335 0 334 C-0.09743488 332.22244596 -0.12371433 330.4409727 -0.12304783 328.66075039 C-0.12503888 327.49530522 -0.12702993 326.32986005 -0.12908131 325.12909836 C-0.12471205 323.18410252 -0.12471205 323.18410252 -0.12025452 321.19981384 C-0.1206901 319.82126726 -0.12156476 318.44272077 -0.12284368 317.06417471 C-0.12509123 313.25829793 -0.12106383 309.45244903 -0.11606562 305.64657581 C-0.11176501 301.54907725 -0.11320727 297.45158038 -0.1139679 293.3540802 C-0.11449338 286.24899355 -0.11134404 279.14391606 -0.10573006 272.03883171 C-0.09761834 261.76595117 -0.09500017 251.49307507 -0.09374207 241.22019166 C-0.09155103 224.55491368 -0.08488954 207.88964057 -0.07543945 191.22436523 C-0.06626667 175.03133163 -0.05918518 158.83829935 -0.05493164 142.64526367 C-0.05466892 141.64786987 -0.05440619 140.65047607 -0.05413551 139.62285822 C-0.05283051 134.61944906 -0.0515668 129.6160399 -0.05032361 124.61263072 C-0.03994938 83.07508375 -0.02232966 41.53754216 0 0 Z " fill="#0C6DFC" transform="translate(114,155)"/>
<path d="M0 0 C6.10844739 2.20943842 13.97832523 5.95665047 17 12 C12.61669388 10.69281227 8.99294509 8.99961987 5.125 6.5625 C4.15820312 5.96566406 3.19140625 5.36882813 2.1953125 4.75390625 C1.47085937 4.17511719 0.74640625 3.59632813 0 3 C0 2.01 0 1.02 0 0 Z " fill="#010812" transform="translate(333,580)"/>
<path d="M0 0 C2.475 0.495 2.475 0.495 5 1 C3.68 1.33 2.36 1.66 1 2 C0.67 1.34 0.34 0.68 0 0 Z " fill="#0D6EFD" transform="translate(183,251)"/>
<path d="M0 0 C0.66 0 1.32 0 2 0 C1.67 1.32 1.34 2.64 1 4 C0.67 2.68 0.34 1.36 0 0 Z " fill="#0D6EFD" transform="translate(353,327)"/>
<path d="M0 0 C1 4 1 4 1 4 Z " fill="#0D6EFD" transform="translate(354,332)"/>
<path d="M0 0 C0.66 0 1.32 0 2 0 C2 0.66 2 1.32 2 2 C1.34 2 0.68 2 0 2 C0 1.34 0 0.68 0 0 Z " fill="#0D6EFC" transform="translate(643,255)"/>
</svg>
